<svg xmlns="http://www.w3.org/2000/svg" width="745" height="936" fill="none"><path fill="#fff" d="M226.289 377.691v-14.713H.848v14.713c70.344 4.646 71.192 5.42 71.192 72.015v399.566c0 66.595-1.696 66.595-72.04 72.015V936h225.441v-14.713c-70.344-4.646-71.192-5.42-71.192-72.015V634.776h261.038v214.496c0 66.595-1.695 66.595-72.04 72.015V936h225.442v-14.713c-70.345-4.646-71.192-5.42-71.192-72.015V449.706c0-66.595 1.695-66.595 72.039-72.015v-14.713H344.095v14.713c70.344 4.646 71.192 5.42 71.192 72.015v163.389H154.249V449.706c0-66.595 1.695-66.595 72.04-72.015Z"/><path fill="#fff" d="M401.753 14.713V0H176.311v14.713c70.345 4.646 71.192 5.42 71.192 72.015v399.566c0 66.595-1.695 66.595-72.039 72.015v14.713h225.441v-14.713c-70.344-4.646-71.192-5.42-71.192-72.015V271.798h261.038v214.496c0 66.595-1.695 66.595-72.04 72.015v14.713h225.441v-14.713c-70.344-4.646-71.192-5.42-71.192-72.015V86.728c0-66.595 1.696-66.595 72.04-72.015V0H519.559v14.713c70.344 4.646 71.192 5.42 71.192 72.015v163.388H329.713V86.728c0-66.595 1.695-66.595 72.04-72.015Z"/></svg>